<svg xmlns="http://www.w3.org/2000/svg" xmlns:xlink="http://www.w3.org/1999/xlink" width="500" zoomAndPan="magnify" viewBox="0 0 375 374.999991" height="500" preserveAspectRatio="xMidYMid meet" version="1.0"><defs><g/><clipPath id="0a7b7af1a2"><path d="M 15 16 L 360 16 L 360 326.246094 L 15 326.246094 Z M 15 16 " clip-rule="nonzero"/></clipPath><clipPath id="f4bd23a24f"><path d="M 49.035156 13.550781 L 325.730469 13.550781 L 325.730469 312.800781 L 49.035156 312.800781 Z M 49.035156 13.550781 " clip-rule="nonzero"/></clipPath><clipPath id="e4d2c9b2d9"><path d="M 114.144531 112.671875 L 140.507812 112.671875 L 140.507812 300 L 114.144531 300 Z M 114.144531 112.671875 " clip-rule="nonzero"/></clipPath></defs><g clip-path="url(#0a7b7af1a2)"><path fill="#000000" d="M 182.476562 17.535156 L 119.699219 53.773438 L 119.152344 54.046875 L 119.152344 54.320312 L 56.785156 90.007812 L 20.550781 111.117188 C 15.804688 113.867188 14.152344 119.851562 16.835938 124.59375 C 19.585938 129.339844 25.570312 130.988281 30.3125 128.308594 L 187.496094 37.613281 L 344.546875 128.238281 C 349.289062 130.988281 355.203125 129.203125 358.023438 124.527344 C 360.839844 119.851562 359.261719 113.867188 354.515625 111.046875 L 318.828125 90.488281 C 318.28125 90.214844 317.867188 89.941406 317.316406 89.527344 L 288.710938 73.160156 L 288.710938 36.167969 L 268.839844 24.480469 L 268.839844 61.679688 L 255.226562 53.773438 L 192.378906 17.535156 C 189.148438 15.816406 185.433594 15.816406 182.476562 17.535156 Z M 233.910156 178.160156 L 141.292969 178.160156 L 141.292969 278.136719 L 129.601562 271.464844 L 71.773438 237.980469 L 71.773438 125.488281 L 51.902344 136.902344 L 51.902344 243.6875 C 51.902344 247.675781 54.378906 251.179688 57.886719 252.832031 L 119.699219 288.519531 L 182.476562 324.753906 C 185.710938 326.542969 189.699219 326.542969 192.65625 324.753906 L 255.15625 288.519531 L 255.707031 287.96875 L 318.074219 252.28125 C 321.304688 250.355469 323.09375 247.054688 323.09375 243.550781 L 323.09375 136.902344 L 303.222656 125.488281 L 303.222656 237.980469 L 246.148438 271.191406 L 245.460938 271.464844 L 234.046875 278.136719 L 234.046875 178.160156 Z M 182.476562 114.554688 L 160.957031 114.554688 L 160.957031 135.941406 L 182.476562 135.941406 Z M 214.039062 114.554688 L 192.65625 114.554688 L 192.65625 135.941406 L 214.039062 135.941406 Z M 182.476562 82.855469 L 160.957031 82.855469 L 160.957031 104.242188 L 182.476562 104.242188 Z M 214.039062 82.855469 L 192.65625 82.855469 L 192.65625 104.242188 L 214.039062 104.242188 Z M 214.039062 82.855469 " fill-opacity="1" fill-rule="nonzero"/></g><g clip-path="url(#f4bd23a24f)"><path fill="#febd18" d="M 48.980469 125.296875 L 48.980469 93.652344 L 187.945312 13.609375 L 326.011719 93.652344 L 326.011719 125.296875 L 297.835938 109.445312 L 187.945312 46.09375 L 77.15625 109.445312 Z M 258.292969 140.253906 L 258.292969 284.480469 L 297.835938 284.480469 L 297.835938 163.164062 Z M 230.175781 284.480469 L 230.175781 91.855469 L 326.011719 147.3125 L 326.011719 312.714844 L 230.117188 312.714844 L 230.117188 284.480469 Z M 141.34375 126.253906 L 141.34375 312.714844 L 113.167969 312.714844 L 113.167969 142.945312 L 77.15625 163.164062 L 77.15625 312.714844 L 48.980469 312.714844 L 48.980469 147.25 L 187.945312 67.210938 L 194.941406 71.636719 L 202 75.105469 L 202 312.597656 L 173.824219 312.597656 L 173.824219 107.710938 Z M 141.34375 126.253906 " fill-opacity="1" fill-rule="nonzero"/></g><g clip-path="url(#e4d2c9b2d9)"><path fill="#febd18" d="M 114.144531 112.671875 L 140.507812 112.671875 L 140.507812 300 L 114.144531 300 Z M 114.144531 112.671875 " fill-opacity="1" fill-rule="nonzero"/></g><g fill="#2b2b2b" fill-opacity="1"><g transform="translate(54.164839, 352.361929)"><g><path d="M 1.625 0 L 1.625 -19.171875 L 7.015625 -19.171875 L 7.015625 -11.96875 L 13.875 -11.96875 L 13.875 -19.171875 L 19.28125 -19.171875 L 19.28125 0 L 13.875 0 L 13.875 -7.296875 L 7.015625 -7.296875 L 7.015625 0 Z M 1.625 0 "/></g></g></g><g fill="#2b2b2b" fill-opacity="1"><g transform="translate(83.162893, 352.361929)"><g><path d="M -1.046875 0 L 7.390625 -19.171875 L 11.875 -19.171875 L 20.03125 0 L 14.578125 0 L 13.234375 -3.421875 L 5.8125 -3.421875 L 4.40625 0 Z M 7.640625 -7.890625 L 11.453125 -7.890625 L 9.578125 -12.578125 Z M 7.640625 -7.890625 "/></g></g></g><g fill="#2b2b2b" fill-opacity="1"><g transform="translate(110.351944, 352.361929)"><g><path d="M 1.625 0 L 1.625 -19.171875 L 9.3125 -19.171875 C 11.832031 -19.171875 13.765625 -18.703125 15.109375 -17.765625 C 16.460938 -16.828125 17.140625 -15.488281 17.140625 -13.75 C 17.140625 -12.914062 16.96875 -12.148438 16.625 -11.453125 C 16.289062 -10.765625 15.828125 -10.195312 15.234375 -9.75 C 15.910156 -9.382812 16.46875 -8.859375 16.90625 -8.171875 C 17.351562 -7.492188 17.578125 -6.6875 17.578125 -5.75 C 17.578125 -4.613281 17.253906 -3.613281 16.609375 -2.75 C 15.960938 -1.882812 15.054688 -1.207031 13.890625 -0.71875 C 12.734375 -0.238281 11.378906 0 9.828125 0 Z M 9.5625 -14.828125 L 6.90625 -14.828125 L 6.90625 -11.828125 L 9.53125 -11.828125 C 10.320312 -11.828125 10.894531 -11.957031 11.25 -12.21875 C 11.613281 -12.476562 11.796875 -12.851562 11.796875 -13.34375 C 11.796875 -14.332031 11.050781 -14.828125 9.5625 -14.828125 Z M 6.90625 -4.34375 L 10.015625 -4.34375 C 10.703125 -4.34375 11.242188 -4.476562 11.640625 -4.75 C 12.035156 -5.019531 12.234375 -5.425781 12.234375 -5.96875 C 12.234375 -6.488281 12.0625 -6.863281 11.71875 -7.09375 C 11.375 -7.332031 10.804688 -7.453125 10.015625 -7.453125 L 6.90625 -7.453125 Z M 6.90625 -4.34375 "/></g></g></g><g fill="#2b2b2b" fill-opacity="1"><g transform="translate(136.325996, 352.361929)"><g><path d="M 1.625 0 L 1.625 -19.171875 L 7.015625 -19.171875 L 7.015625 0 Z M 1.625 0 "/></g></g></g><g fill="#2b2b2b" fill-opacity="1"><g transform="translate(153.066046, 352.361929)"><g><path d="M 17.359375 -19.171875 L 16.578125 -14.46875 L 10.96875 -14.46875 L 10.96875 0 L 5.5625 0 L 5.5625 -14.46875 L -0.4375 -14.46875 L -0.4375 -19.171875 Z M 17.359375 -19.171875 "/></g></g></g><g fill="#2b2b2b" fill-opacity="1"><g transform="translate(177.663094, 352.361929)"><g><path d="M -1.046875 0 L 7.390625 -19.171875 L 11.875 -19.171875 L 20.03125 0 L 14.578125 0 L 13.234375 -3.421875 L 5.8125 -3.421875 L 4.40625 0 Z M 7.640625 -7.890625 L 11.453125 -7.890625 L 9.578125 -12.578125 Z M 7.640625 -7.890625 "/></g></g></g><g fill="#2b2b2b" fill-opacity="1"><g transform="translate(204.852149, 352.361929)"><g><path d="M 17.359375 -19.171875 L 16.578125 -14.46875 L 10.96875 -14.46875 L 10.96875 0 L 5.5625 0 L 5.5625 -14.46875 L -0.4375 -14.46875 L -0.4375 -19.171875 Z M 17.359375 -19.171875 "/></g></g></g><g fill="#2b2b2b" fill-opacity="1"><g transform="translate(229.449196, 352.361929)"><g><path d="M 1.625 0 L 1.625 -19.171875 L 7.015625 -19.171875 L 7.015625 0 Z M 1.625 0 "/></g></g></g><g fill="#2b2b2b" fill-opacity="1"><g transform="translate(246.189246, 352.361929)"><g><path d="M 10.6875 0.265625 C 8.625 0.285156 6.84375 -0.078125 5.34375 -0.828125 C 3.851562 -1.585938 2.710938 -2.675781 1.921875 -4.09375 C 1.128906 -5.519531 0.734375 -7.234375 0.734375 -9.234375 C 0.734375 -11.285156 1.164062 -13.078125 2.03125 -14.609375 C 2.894531 -16.140625 4.097656 -17.328125 5.640625 -18.171875 C 7.191406 -19.015625 9 -19.4375 11.0625 -19.4375 C 12.957031 -19.4375 14.609375 -19.039062 16.015625 -18.25 C 17.429688 -17.457031 18.53125 -16.351562 19.3125 -14.9375 C 20.101562 -13.53125 20.5 -11.875 20.5 -9.96875 C 20.5 -7.945312 20.085938 -6.171875 19.265625 -4.640625 C 18.441406 -3.109375 17.289062 -1.910156 15.8125 -1.046875 C 14.34375 -0.179688 12.632812 0.253906 10.6875 0.265625 Z M 10.5625 -4.453125 C 11.945312 -4.453125 13.039062 -4.941406 13.84375 -5.921875 C 14.65625 -6.898438 15.0625 -8.210938 15.0625 -9.859375 C 15.0625 -11.328125 14.675781 -12.503906 13.90625 -13.390625 C 13.144531 -14.273438 12.128906 -14.71875 10.859375 -14.71875 C 9.921875 -14.71875 9.097656 -14.488281 8.390625 -14.03125 C 7.691406 -13.570312 7.148438 -12.941406 6.765625 -12.140625 C 6.378906 -11.335938 6.1875 -10.414062 6.1875 -9.375 C 6.1875 -7.820312 6.570312 -6.613281 7.34375 -5.75 C 8.113281 -4.882812 9.1875 -4.453125 10.5625 -4.453125 Z M 10.5625 -4.453125 "/></g></g></g><g fill="#2b2b2b" fill-opacity="1"><g transform="translate(275.511296, 352.361929)"><g><path d="M 13.84375 -19.171875 L 19.03125 -19.171875 L 19.03125 0 L 14.234375 0 L 6.796875 -10.3125 L 6.796875 0 L 1.625 0 L 1.625 -19.171875 L 6.421875 -19.171875 L 13.84375 -8.890625 Z M 13.84375 -19.171875 "/></g></g></g><g fill="#2b2b2b" fill-opacity="1"><g transform="translate(304.266337, 352.361929)"><g><path d="M 8.078125 0.265625 C 5.660156 0.265625 3.773438 -0.242188 2.421875 -1.265625 C 1.078125 -2.296875 0.316406 -3.789062 0.140625 -5.75 L 5.125 -6.484375 C 5.164062 -5.796875 5.46875 -5.238281 6.03125 -4.8125 C 6.601562 -4.394531 7.335938 -4.1875 8.234375 -4.1875 C 9.890625 -4.1875 10.71875 -4.617188 10.71875 -5.484375 C 10.71875 -5.878906 10.488281 -6.195312 10.03125 -6.4375 C 9.570312 -6.675781 8.820312 -6.925781 7.78125 -7.1875 C 5.539062 -7.71875 3.898438 -8.429688 2.859375 -9.328125 C 1.816406 -10.234375 1.304688 -11.507812 1.328125 -13.15625 C 1.335938 -14.394531 1.660156 -15.484375 2.296875 -16.421875 C 2.941406 -17.367188 3.84375 -18.109375 5 -18.640625 C 6.164062 -19.171875 7.53125 -19.4375 9.09375 -19.4375 C 11.019531 -19.4375 12.609375 -18.953125 13.859375 -17.984375 C 15.109375 -17.015625 15.828125 -15.691406 16.015625 -14.015625 L 11.28125 -13.203125 C 11.195312 -13.722656 10.925781 -14.148438 10.46875 -14.484375 C 10.007812 -14.816406 9.453125 -14.984375 8.796875 -14.984375 C 8.191406 -14.984375 7.703125 -14.859375 7.328125 -14.609375 C 6.960938 -14.367188 6.78125 -14.046875 6.78125 -13.640625 C 6.78125 -13.253906 6.960938 -12.921875 7.328125 -12.640625 C 7.703125 -12.367188 8.398438 -12.109375 9.421875 -11.859375 C 10.898438 -11.492188 12.140625 -11.082031 13.140625 -10.625 C 14.140625 -10.164062 14.894531 -9.578125 15.40625 -8.859375 C 15.914062 -8.140625 16.171875 -7.191406 16.171875 -6.015625 C 16.171875 -4.773438 15.832031 -3.679688 15.15625 -2.734375 C 14.476562 -1.796875 13.53125 -1.0625 12.3125 -0.53125 C 11.101562 0 9.691406 0.265625 8.078125 0.265625 Z M 8.078125 0.265625 "/></g></g></g><path stroke-linecap="butt" transform="matrix(0.647735, 0.378072, -0.378072, 0.647735, 49.792362, 244.447527)" fill="none" stroke-linejoin="miter" d="M -0.00176652 1.99978 L 213.766287 2.000569 " stroke="#000000" stroke-width="4" stroke-opacity="1" stroke-miterlimit="4"/><path stroke-linecap="butt" transform="matrix(-0.647735, 0.378072, -0.378072, -0.647735, 326.719699, 247.038471)" fill="none" stroke-linejoin="miter" d="M -0.00203109 2.000069 L 213.766023 1.99928 " stroke="#000000" stroke-width="4" stroke-opacity="1" stroke-miterlimit="4"/><path stroke-linecap="butt" transform="matrix(0.649519, -0.375, 0.375, 0.649519, 24.181581, 138.422261)" fill="none" stroke-linejoin="miter" d="M -0.00309146 2.000304 L 250.289875 2.001045 " stroke="#000000" stroke-width="4" stroke-opacity="1" stroke-miterlimit="4"/><path stroke-linecap="butt" transform="matrix(0.652152, 0.370402, -0.370402, 0.652152, 188.240147, 44.562383)" fill="none" stroke-linejoin="miter" d="M 0.00109044 2.000147 L 264.278032 2.0031 " stroke="#000000" stroke-width="4" stroke-opacity="1" stroke-miterlimit="4"/><path stroke-linecap="butt" transform="matrix(0.650966, 0.372483, -0.372483, 0.650966, 188.249553, 12.801881)" fill="none" stroke-linejoin="miter" d="M 0.00030779 2.002367 L 266.291959 2.000045 " stroke="#000000" stroke-width="4" stroke-opacity="1" stroke-miterlimit="4"/><path stroke-linecap="butt" transform="matrix(0.649519, -0.375, 0.375, 0.649519, 29.685482, 104.34728)" fill="none" stroke-linejoin="miter" d="M -0.000989814 1.996678 L 244.126997 1.998393 " stroke="#000000" stroke-width="4" stroke-opacity="1" stroke-miterlimit="4"/><path stroke-linecap="butt" transform="matrix(0.649519, -0.375, 0.375, 0.649519, 17.071106, 142.452295)" fill="none" stroke-linejoin="miter" d="M -0.0000269009 1.997932 L 169.745129 2.001142 " stroke="#000000" stroke-width="4" stroke-opacity="1" stroke-miterlimit="4"/><path stroke-linecap="butt" transform="matrix(-0.659062, 0.357963, -0.357963, -0.659062, 63.619198, 88.167834)" fill="none" stroke-linejoin="miter" d="M 0.00226677 1.998421 L 79.209203 2.000801 " stroke="#000000" stroke-width="4" stroke-opacity="1" stroke-miterlimit="4"/></svg>